<svg width="32" height="32" viewBox="0 0 32 32" fill="none" xmlns="http://www.w3.org/2000/svg">
<rect width="32" height="32" rx="4" fill="#7741FB"/>
<path d="M4.56818 11.392V9.36364H14.125V11.392H10.5625V21H8.13068V11.392H4.56818ZM19.8239 21H15.6989V9.36364H19.858C21.0284 9.36364 22.036 9.59659 22.8807 10.0625C23.7254 10.5246 24.375 11.1894 24.8295 12.0568C25.2879 12.9242 25.517 13.9621 25.517 15.1705C25.517 16.3826 25.2879 17.4242 24.8295 18.2955C24.375 19.1667 23.7216 19.8352 22.8693 20.3011C22.0208 20.767 21.0057 21 19.8239 21ZM18.1591 18.892H19.7216C20.4489 18.892 21.0606 18.7633 21.5568 18.5057C22.0568 18.2443 22.4318 17.8409 22.6818 17.2955C22.9356 16.7462 23.0625 16.0379 23.0625 15.1705C23.0625 14.3106 22.9356 13.608 22.6818 13.0625C22.4318 12.517 22.0587 12.1155 21.5625 11.858C21.0663 11.6004 20.4545 11.4716 19.7273 11.4716H18.1591V18.892Z" fill="white"/>
</svg>
